<svg
  xmlns="http://www.w3.org/2000/svg"
  viewBox="0 0 200 200"
  fill="none"
>
  <defs>
    <linearGradient id="blueGradient" x1="25" y1="40" x2="165" y2="150" gradientUnits="userSpaceOnUse">
      <stop offset="0" stop-color="#29206F"/>
      <stop offset="0.5" stop-color="#3F4FEA"/>
      <stop offset="1" stop-color="#5969F2"/>
    </linearGradient>
  </defs>

  <!-- Main T shape -->
  <path
    d="M42 47
       C31 47 27 55 31 64
       C33 69 38 71 44 71
       H82
       V104
       C82 111 79 116 75 121
       C68 129 64 138 66 147
       C68 156 75 161 83 158
       C90 155 94 148 97 141
       C101 131 107 121 118 115
       C127 110 138 107 151 106
       C157 105 161 101 160 96
       C159 91 155 88 149 89
       C133 90 120 94 108 100
       C99 105 92 111 88 119
       V68
       H145
       C153 68 158 63 158 57
       C158 50 153 47 146 47
       H42Z"
    stroke="url(#blueGradient)"
    stroke-width="11"
    stroke-linecap="round"
    stroke-linejoin="round"
  />

  <!-- Bottom dot -->
  <circle
    cx="117"
    cy="132"
    r="10"
    fill="url(#blueGradient)"
  />

  <!-- Green sparkle -->
  <path
    d="M151 35V25"
    stroke="#8EEA20"
    stroke-width="5"
    stroke-linecap="round"
  />

  <path
    d="M160 40L168 32"
    stroke="#8EEA20"
    stroke-width="5"
    stroke-linecap="round"
  />

  <path
    d="M165 48H176"
    stroke="#8EEA20"
    stroke-width="5"
    stroke-linecap="round"
  />
</svg>